<svg viewBox="0 0 24 24" fill="none" xmlns="http://www.w3.org/2000/svg">
  <!-- Shield outline in military green -->
  <path d="M20 13c0 5-3.5 7.5-8 12.5a1 1 0 0 1-2 0C5.5 20.5 2 18 2 13V6a1 1 0 0 1 1-1c2 0 4.5-1.2 6.5-2.5a1 1 0 0 1 1 0C12.5 3.8 15 5 17 5a1 1 0 0 1 1 1z" 
        fill="#4ade80" 
        stroke="#16a34a" 
        stroke-width="1.5" 
        stroke-linecap="round" 
        stroke-linejoin="round"/>
  
  <!-- Plus symbol in white -->
  <path d="M12 8v8" stroke="white" stroke-width="2" stroke-linecap="round"/>
  <path d="M8 12h8" stroke="white" stroke-width="2" stroke-linecap="round"/>
</svg>